{
  "accessors": [
    {
      "bufferView": 2,
      "componentType": 5126,
      "count": 23308,
      "max": [
        68.1478271484375,
        69.91510772705078,
        38.80462646484375
      ],
      "min": [
        -82.30620574951172,
        0.9972360134124756,
        -18.850990295410156
      ],
      "type": "VEC3"
    },
    {
      "bufferView": 2,
      "byteOffset": 279696,
      "componentType": 5126,
      "count": 23308,
      "max": [
        1.0,
        1.0,
        1.0
      ],
      "min": [
        -1.0,
        -1.0,
        -1.0
      ],
      "type": "VEC3"
    },
    {
      "bufferView": 3,
      "componentType": 5126,
      "count": 23308,
      "max": [
        1.0,
        1.0,
        1.0,
        1.0
      ],
      "min": [
        -1.0,
        -1.0,
        -1.0,
        -1.0
      ],
      "type": "VEC4"
    },
    {
      "bufferView": 1,
      "componentType": 5126,
      "count": 23308,
      "max": [
        0.9938089847564697,
        0.996953010559082
      ],
      "min": [
        0.006698966026306152,
        0.003942012786865234
      ],
      "type": "VEC2"
    },
    {
      "bufferView": 1,
      "byteOffset": 186464,
      "componentType": 5126,
      "count": 23308,
      "max": [
        0.9938089847564697,
        0.996953010559082
      ],
      "min": [
        0.006698966026306152,
        0.003942012786865234
      ],
      "type": "VEC2"
    },
    {
      "bufferView": 1,
      "byteOffset": 372928,
      "componentType": 5126,
      "count": 23308,
      "max": [
        0.9938089847564697,
        0.996953010559082
      ],
      "min": [
        0.006698966026306152,
        0.003942012786865234
      ],
      "type": "VEC2"
    },
    {
      "bufferView": 1,
      "byteOffset": 559392,
      "componentType": 5126,
      "count": 23308,
      "max": [
        0.9938089847564697,
        0.996953010559082
      ],
      "min": [
        0.006698966026306152,
        0.003942012786865234
      ],
      "type": "VEC2"
    },
    {
      "bufferView": 1,
      "byteOffset": 745856,
      "componentType": 5126,
      "count": 23308,
      "max": [
        0.9938089847564697,
        0.996953010559082
      ],
      "min": [
        0.006698966026306152,
        0.003942012786865234
      ],
      "type": "VEC2"
    },
    {
      "bufferView": 1,
      "byteOffset": 932320,
      "componentType": 5126,
      "count": 23308,
      "max": [
        0.9938089847564697,
        0.996953010559082
      ],
      "min": [
        0.006698966026306152,
        0.003942012786865234
      ],
      "type": "VEC2"
    },
    {
      "bufferView": 0,
      "componentType": 5125,
      "count": 98955,
      "type": "SCALAR"
    },
    {
      "bufferView": 2,
      "byteOffset": 559392,
      "componentType": 5126,
      "count": 38577,
      "max": [
        83.56236267089844,
        79.49543762207031,
        45.67630386352539
      ],
      "min": [
        -83.56358337402344,
        1.1156904697418213,
        -44.6229248046875
      ],
      "type": "VEC3"
    },
    {
      "bufferView": 2,
      "byteOffset": 1022316,
      "componentType": 5126,
      "count": 38577,
      "max": [
        0.9976159334182739,
        1.0,
        0.9999781250953674
      ],
      "min": [
        -0.9990540146827698,
        -1.0,
        -0.9998239874839783
      ],
      "type": "VEC3"
    },
    {
      "bufferView": 3,
      "byteOffset": 372928,
      "componentType": 5126,
      "count": 38577,
      "max": [
        1.0,
        0.9994283318519592,
        0.9999708533287048,
        1.0
      ],
      "min": [
        -0.9999955892562866,
        -0.999815821647644,
        -0.999973475933075,
        -1.0
      ],
      "type": "VEC4"
    },
    {
      "bufferView": 1,
      "byteOffset": 1118784,
      "componentType": 5126,
      "count": 38577,
      "max": [
        0.9930973052978516,
        0.9975173473358154
      ],
      "min": [
        0.008523225784301758,
        0.007341206073760986
      ],
      "type": "VEC2"
    },
    {
      "bufferView": 1,
      "byteOffset": 1427400,
      "componentType": 5126,
      "count": 38577,
      "max": [
        0.9930973052978516,
        0.9975173473358154
      ],
      "min": [
        0.008523225784301758,
        0.007341206073760986
      ],
      "type": "VEC2"
    },
    {
      "bufferView": 1,
      "byteOffset": 1736016,
      "componentType": 5126,
      "count": 38577,
      "max": [
        0.9930973052978516,
        0.9975173473358154
      ],
      "min": [
        0.008523225784301758,
        0.007341206073760986
      ],
      "type": "VEC2"
    },
    {
      "bufferView": 1,
      "byteOffset": 2044632,
      "componentType": 5126,
      "count": 38577,
      "max": [
        0.9930973052978516,
        0.9975173473358154
      ],
      "min": [
        0.008523225784301758,
        0.007341206073760986
      ],
      "type": "VEC2"
    },
    {
      "bufferView": 1,
      "byteOffset": 2353248,
      "componentType": 5126,
      "count": 38577,
      "max": [
        0.9930973052978516,
        0.9975173473358154
      ],
      "min": [
        0.008523225784301758,
        0.007341206073760986
      ],
      "type": "VEC2"
    },
    {
      "bufferView": 0,
      "byteOffset": 395820,
      "componentType": 5125,
      "count": 38577,
      "type": "SCALAR"
    },
    {
      "bufferView": 2,
      "byteOffset": 1485240,
      "componentType": 5126,
      "count": 30477,
      "max": [
        59.47463607788086,
        79.08428192138672,
        17.97861099243164
      ],
      "min": [
        -20.370698928833008,
        0.8014298677444458,
        -22.57465934753418
      ],
      "type": "VEC3"
    },
    {
      "bufferView": 2,
      "byteOffset": 1850964,
      "componentType": 5126,
      "count": 30477,
      "max": [
        1.0,
        1.0,
        1.0
      ],
      "min": [
        -1.0,
        -1.0,
        -1.0
      ],
      "type": "VEC3"
    },
    {
      "bufferView": 3,
      "byteOffset": 990160,
      "componentType": 5126,
      "count": 30477,
      "max": [
        1.0,
        1.0,
        1.0,
        1.0
      ],
      "min": [
        -1.0,
        -1.0,
        -1.0,
        -1.0
      ],
      "type": "VEC4"
    },
    {
      "bufferView": 1,
      "byteOffset": 2661864,
      "componentType": 5126,
      "count": 30477,
      "max": [
        0.9950615167617798,
        0.9949467182159424
      ],
      "min": [
        0.006398439407348633,
        0.004866957664489746
      ],
      "type": "VEC2"
    },
    {
      "bufferView": 1,
      "byteOffset": 2905680,
      "componentType": 5126,
      "count": 30477,
      "max": [
        0.9950615167617798,
        0.9949467182159424
      ],
      "min": [
        0.006398439407348633,
        0.004866957664489746
      ],
      "type": "VEC2"
    },
    {
      "bufferView": 1,
      "byteOffset": 3149496,
      "componentType": 5126,
      "count": 30477,
      "max": [
        0.9950615167617798,
        0.9949467182159424
      ],
      "min": [
        0.006398439407348633,
        0.004866957664489746
      ],
      "type": "VEC2"
    },
    {
      "bufferView": 1,
      "byteOffset": 3393312,
      "componentType": 5126,
      "count": 30477,
      "max": [
        0.9950615167617798,
        0.9949467182159424
      ],
      "min": [
        0.006398439407348633,
        0.004866957664489746
      ],
      "type": "VEC2"
    },
    {
      "bufferView": 1,
      "byteOffset": 3637128,
      "componentType": 5126,
      "count": 30477,
      "max": [
        0.9950615167617798,
        0.9949467182159424
      ],
      "min": [
        0.006398439407348633,
        0.004866957664489746
      ],
      "type": "VEC2"
    },
    {
      "bufferView": 1,
      "byteOffset": 3880944,
      "componentType": 5126,
      "count": 30477,
      "max": [
        0.9950615167617798,
        0.9949467182159424
      ],
      "min": [
        0.006398439407348633,
        0.004866957664489746
      ],
      "type": "VEC2"
    },
    {
      "bufferView": 0,
      "byteOffset": 550128,
      "componentType": 5125,
      "count": 31323,
      "type": "SCALAR"
    },
    {
      "bufferView": 2,
      "byteOffset": 2216688,
      "componentType": 5126,
      "count": 58812,
      "max": [
        28.15191650390625,
        83.07015228271484,
        11.536823272705078
      ],
      "min": [
        -81.61797332763672,
        1.790116786956787,
        -28.31385612487793
      ],
      "type": "VEC3"
    },
    {
      "bufferView": 2,
      "byteOffset": 2922432,
      "componentType": 5126,
      "count": 58812,
      "max": [
        1.0,
        1.0,
        1.0
      ],
      "min": [
        -1.0,
        -1.0,
        -1.0
      ],
      "type": "VEC3"
    },
    {
      "bufferView": 3,
      "byteOffset": 1477792,
      "componentType": 5126,
      "count": 58812,
      "max": [
        1.0,
        1.0,
        1.0,
        1.0
      ],
      "min": [
        -1.0,
        -1.0,
        -1.0,
        -1.0
      ],
      "type": "VEC4"
    },
    {
      "bufferView": 1,
      "byteOffset": 4124760,
      "componentType": 5126,
      "count": 58812,
      "max": [
        0.9971559047698975,
        0.9954159259796143
      ],
      "min": [
        0.007572770118713379,
        0.007325470447540283
      ],
      "type": "VEC2"
    },
    {
      "bufferView": 1,
      "byteOffset": 4595256,
      "componentType": 5126,
      "count": 58812,
      "max": [
        0.9971559047698975,
        0.9954159259796143
      ],
      "min": [
        0.007572770118713379,
        0.007325470447540283
      ],
      "type": "VEC2"
    },
    {
      "bufferView": 1,
      "byteOffset": 5065752,
      "componentType": 5126,
      "count": 58812,
      "max": [
        0.9971559047698975,
        0.9954159259796143
      ],
      "min": [
        0.007572770118713379,
        0.007325470447540283
      ],
      "type": "VEC2"
    },
    {
      "bufferView": 1,
      "byteOffset": 5536248,
      "componentType": 5126,
      "count": 58812,
      "max": [
        0.9971559047698975,
        0.9954159259796143
      ],
      "min": [
        0.007572770118713379,
        0.007325470447540283
      ],
      "type": "VEC2"
    },
    {
      "bufferView": 1,
      "byteOffset": 6006744,
      "componentType": 5126,
      "count": 58812,
      "max": [
        0.9971559047698975,
        0.9954159259796143
      ],
      "min": [
        0.007572770118713379,
        0.007325470447540283
      ],
      "type": "VEC2"
    },
    {
      "bufferView": 1,
      "byteOffset": 6477240,
      "componentType": 5126,
      "count": 58812,
      "max": [
        0.9971559047698975,
        0.9954159259796143
      ],
      "min": [
        0.007572770118713379,
        0.007325470447540283
      ],
      "type": "VEC2"
    },
    {
      "bufferView": 0,
      "byteOffset": 675420,
      "componentType": 5125,
      "count": 59853,
      "type": "SCALAR"
    }
  ],
  "asset": {
    "extras": {
      "author": "sahilseth (https://sketchfab.com/sahilseth)",
      "license": "CC-BY-4.0 (http://creativecommons.org/licenses/by/4.0/)",
      "source": "https://sketchfab.com/3d-models/snowy-village-cd2404d1bc6c47da8f190207243026cb",
      "title": "Snowy Village"
    },
    "generator": "Sketchfab-13.79.0",
    "version": "2.0"
  },
  "bufferViews": [
    {
      "buffer": 0,
      "byteLength": 914832,
      "name": "floatBufferViews",
      "target": 34963
    },
    {
      "buffer": 0,
      "byteLength": 6947736,
      "byteOffset": 914832,
      "byteStride": 8,
      "name": "floatBufferViews",
      "target": 34962
    },
    {
      "buffer": 0,
      "byteLength": 3628176,
      "byteOffset": 7862568,
      "byteStride": 12,
      "name": "floatBufferViews",
      "target": 34962
    },
    {
      "buffer": 0,
      "byteLength": 2418784,
      "byteOffset": 11490744,
      "byteStride": 16,
      "name": "floatBufferViews",
      "target": 34962
    }
  ],
  "buffers": [
    {
      "byteLength": 13909528,
      "uri": "scene.bin"
    }
  ],
  "extensionsRequired": [
    "KHR_materials_pbrSpecularGlossiness"
  ],
  "extensionsUsed": [
    "KHR_materials_pbrSpecularGlossiness"
  ],
  "images": [
    {
      "uri": "textures/material_0_diffuse.png"
    },
    {
      "uri": "textures/material_0_specularGlossiness.png"
    },
    {
      "uri": "textures/material_0_emissive.png"
    },
    {
      "uri": "textures/material_0_normal.png"
    },
    {
      "uri": "textures/material_0_occlusion.png"
    },
    {
      "uri": "textures/material_1_diffuse.png"
    },
    {
      "uri": "textures/material_1_specularGlossiness.png"
    },
    {
      "uri": "textures/material_1_normal.png"
    },
    {
      "uri": "textures/material_1_occlusion.png"
    },
    {
      "uri": "textures/material_2_diffuse.png"
    },
    {
      "uri": "textures/material_2_specularGlossiness.png"
    },
    {
      "uri": "textures/material_2_emissive.png"
    },
    {
      "uri": "textures/material_2_normal.png"
    },
    {
      "uri": "textures/material_2_occlusion.png"
    },
    {
      "uri": "textures/material_3_diffuse.png"
    },
    {
      "uri": "textures/material_3_specularGlossiness.png"
    },
    {
      "uri": "textures/material_3_emissive.png"
    },
    {
      "uri": "textures/material_3_normal.png"
    },
    {
      "uri": "textures/material_3_occlusion.png"
    }
  ],
  "materials": [
    {
      "doubleSided": true,
      "emissiveFactor": [
        1.0,
        1.0,
        1.0
      ],
      "emissiveTexture": {
        "index": 2
      },
      "extensions": {
        "KHR_materials_pbrSpecularGlossiness": {
          "diffuseFactor": [
            1.0,
            1.0,
            1.0,
            1.0
          ],
          "diffuseTexture": {
            "index": 0
          },
          "glossinessFactor": 1.0,
          "specularFactor": [
            1.0,
            1.0,
            1.0
          ],
          "specularGlossinessTexture": {
            "index": 1
          }
        }
      },
      "name": "material_0",
      "normalTexture": {
        "index": 3
      },
      "occlusionTexture": {
        "index": 4
      }
    },
    {
      "doubleSided": true,
      "extensions": {
        "KHR_materials_pbrSpecularGlossiness": {
          "diffuseFactor": [
            1.0,
            1.0,
            1.0,
            1.0
          ],
          "diffuseTexture": {
            "index": 5
          },
          "glossinessFactor": 1.0,
          "specularFactor": [
            1.0,
            1.0,
            1.0
          ],
          "specularGlossinessTexture": {
            "index": 6
          }
        }
      },
      "name": "material_1",
      "normalTexture": {
        "index": 7
      },
      "occlusionTexture": {
        "index": 8
      }
    },
    {
      "doubleSided": true,
      "emissiveFactor": [
        1.0,
        1.0,
        1.0
      ],
      "emissiveTexture": {
        "index": 11
      },
      "extensions": {
        "KHR_materials_pbrSpecularGlossiness": {
          "diffuseFactor": [
            1.0,
            1.0,
            1.0,
            1.0
          ],
          "diffuseTexture": {
            "index": 9
          },
          "glossinessFactor": 1.0,
          "specularFactor": [
            1.0,
            1.0,
            1.0
          ],
          "specularGlossinessTexture": {
            "index": 10
          }
        }
      },
      "name": "material_2",
      "normalTexture": {
        "index": 12
      },
      "occlusionTexture": {
        "index": 13
      }
    },
    {
      "doubleSided": true,
      "emissiveFactor": [
        1.0,
        1.0,
        1.0
      ],
      "emissiveTexture": {
        "index": 16
      },
      "extensions": {
        "KHR_materials_pbrSpecularGlossiness": {
          "diffuseFactor": [
            1.0,
            1.0,
            1.0,
            1.0
          ],
          "diffuseTexture": {
            "index": 14
          },
          "glossinessFactor": 1.0,
          "specularFactor": [
            1.0,
            1.0,
            1.0
          ],
          "specularGlossinessTexture": {
            "index": 15
          }
        }
      },
      "name": "material_3",
      "normalTexture": {
        "index": 17
      },
      "occlusionTexture": {
        "index": 18
      }
    }
  ],
  "meshes": [
    {
      "name": "Object_0",
      "primitives": [
        {
          "attributes": {
            "NORMAL": 1,
            "POSITION": 0,
            "TANGENT": 2,
            "TEXCOORD_0": 3,
            "TEXCOORD_1": 4,
            "TEXCOORD_2": 5,
            "TEXCOORD_3": 6,
            "TEXCOORD_4": 7,
            "TEXCOORD_5": 8
          },
          "indices": 9,
          "material": 0,
          "mode": 4
        }
      ]
    },
    {
      "name": "Object_1",
      "primitives": [
        {
          "attributes": {
            "NORMAL": 11,
            "POSITION": 10,
            "TANGENT": 12,
            "TEXCOORD_0": 13,
            "TEXCOORD_1": 14,
            "TEXCOORD_2": 15,
            "TEXCOORD_3": 16,
            "TEXCOORD_4": 17
          },
          "indices": 18,
          "material": 1,
          "mode": 4
        }
      ]
    },
    {
      "name": "Object_2",
      "primitives": [
        {
          "attributes": {
            "NORMAL": 20,
            "POSITION": 19,
            "TANGENT": 21,
            "TEXCOORD_0": 22,
            "TEXCOORD_1": 23,
            "TEXCOORD_2": 24,
            "TEXCOORD_3": 25,
            "TEXCOORD_4": 26,
            "TEXCOORD_5": 27
          },
          "indices": 28,
          "material": 2,
          "mode": 4
        }
      ]
    },
    {
      "name": "Object_3",
      "primitives": [
        {
          "attributes": {
            "NORMAL": 30,
            "POSITION": 29,
            "TANGENT": 31,
            "TEXCOORD_0": 32,
            "TEXCOORD_1": 33,
            "TEXCOORD_2": 34,
            "TEXCOORD_3": 35,
            "TEXCOORD_4": 36,
            "TEXCOORD_5": 37
          },
          "indices": 38,
          "material": 3,
          "mode": 4
        }
      ]
    }
  ],
  "nodes": [
    {
      "children": [
        1
      ],
      "matrix": [
        1.0,
        0.0,
        0.0,
        0.0,
        0.0,
        2.220446049250313e-16,
        -1.0,
        0.0,
        0.0,
        1.0,
        2.220446049250313e-16,
        0.0,
        0.0,
        0.0,
        0.0,
        1.0
      ],
      "name": "Sketchfab_model"
    },
    {
      "children": [
        2
      ],
      "name": "root"
    },
    {
      "children": [
        3
      ],
      "matrix": [
        1.0,
        0.0,
        0.0,
        0.0,
        0.0,
        2.220446049250313e-16,
        1.0,
        0.0,
        0.0,
        -1.0,
        2.220446049250313e-16,
        0.0,
        0.0,
        0.0,
        0.0,
        1.0
      ],
      "name": "GLTF_SceneRootNode"
    },
    {
      "children": [
        4
      ],
      "matrix": [
        0.009999999776482582,
        0.0,
        0.0,
        0.0,
        0.0,
        0.009999999776482582,
        0.0,
        0.0,
        0.0,
        0.0,
        0.009999999776482582,
        0.0,
        0.0,
        0.0,
        0.0,
        1.0
      ],
      "name": "RootNode.0_0"
    },
    {
      "children": [
        5,
        7,
        9,
        11
      ],
      "matrix": [
        50.0,
        0.0,
        0.0,
        0.0,
        0.0,
        50.0,
        0.0,
        0.0,
        0.0,
        0.0,
        50.0,
        0.0,
        0.0,
        0.0,
        0.0,
        1.0
      ],
      "name": "snowy_village.1_1"
    },
    {
      "children": [
        6
      ],
      "name": "_2"
    },
    {
      "mesh": 0,
      "name": "Object_6"
    },
    {
      "children": [
        8
      ],
      "name": "_3"
    },
    {
      "mesh": 1,
      "name": "Object_8"
    },
    {
      "children": [
        10
      ],
      "name": "_4"
    },
    {
      "mesh": 2,
      "name": "Object_10"
    },
    {
      "children": [
        12
      ],
      "name": "_5"
    },
    {
      "mesh": 3,
      "name": "Object_12"
    }
  ],
  "samplers": [
    {
      "magFilter": 9729,
      "minFilter": 9987,
      "wrapS": 10497,
      "wrapT": 10497
    }
  ],
  "scene": 0,
  "scenes": [
    {
      "name": "Sketchfab_Scene",
      "nodes": [
        0
      ]
    }
  ],
  "textures": [
    {
      "sampler": 0,
      "source": 0
    },
    {
      "sampler": 0,
      "source": 1
    },
    {
      "sampler": 0,
      "source": 2
    },
    {
      "sampler": 0,
      "source": 3
    },
    {
      "sampler": 0,
      "source": 4
    },
    {
      "sampler": 0,
      "source": 5
    },
    {
      "sampler": 0,
      "source": 6
    },
    {
      "sampler": 0,
      "source": 7
    },
    {
      "sampler": 0,
      "source": 8
    },
    {
      "sampler": 0,
      "source": 9
    },
    {
      "sampler": 0,
      "source": 10
    },
    {
      "sampler": 0,
      "source": 11
    },
    {
      "sampler": 0,
      "source": 12
    },
    {
      "sampler": 0,
      "source": 13
    },
    {
      "sampler": 0,
      "source": 14
    },
    {
      "sampler": 0,
      "source": 15
    },
    {
      "sampler": 0,
      "source": 16
    },
    {
      "sampler": 0,
      "source": 17
    },
    {
      "sampler": 0,
      "source": 18
    }
  ]
}
