{
  "accessors": [
    {
      "bufferView": 2,
      "componentType": 5126,
      "count": 54516,
      "max": [
        41.72578811645508,
        211.05364990234375,
        54.060447692871094
      ],
      "min": [
        -44.86296844482422,
        -0.44235143065452576,
        -43.25270080566406
      ],
      "type": "VEC3"
    },
    {
      "bufferView": 2,
      "byteOffset": 654192,
      "componentType": 5126,
      "count": 54516,
      "max": [
        0.9999345541000366,
        0.9999932646751404,
        0.9999428391456604
      ],
      "min": [
        -0.9999581575393677,
        -0.9999864101409912,
        -0.999998152256012
      ],
      "type": "VEC3"
    },
    {
      "bufferView": 3,
      "componentType": 5126,
      "count": 54516,
      "max": [
        0.9999410510063171,
        0.9999927878379822,
        0.9999918937683105,
        1.0
      ],
      "min": [
        -0.9999639987945557,
        -0.9999806880950928,
        -0.9999604225158691,
        -1.0
      ],
      "type": "VEC4"
    },
    {
      "bufferView": 1,
      "componentType": 5126,
      "count": 54516,
      "max": [
        0.9981880187988281,
        0.9994999766349792
      ],
      "min": [
        0.0005000000237487257,
        0.0005000000237487257
      ],
      "type": "VEC2"
    },
    {
      "bufferView": 0,
      "componentType": 5125,
      "count": 150360,
      "type": "SCALAR"
    }
  ],
  "asset": {
    "extras": {
      "author": "Lukas Guhse (https://sketchfab.com/guhselukas)",
      "license": "CC-BY-4.0 (http://creativecommons.org/licenses/by/4.0/)",
      "source": "https://sketchfab.com/3d-models/scifi-character-model-fastlane-e04d4f8606854c858ec6771d044b5693",
      "title": "SciFi Character Model - FastLane"
    },
    "generator": "Sketchfab-12.67.0",
    "version": "2.0"
  },
  "bufferViews": [
    {
      "buffer": 0,
      "byteLength": 601440,
      "name": "floatBufferViews",
      "target": 34963
    },
    {
      "buffer": 0,
      "byteLength": 436128,
      "byteOffset": 601440,
      "byteStride": 8,
      "name": "floatBufferViews",
      "target": 34962
    },
    {
      "buffer": 0,
      "byteLength": 1308384,
      "byteOffset": 1037568,
      "byteStride": 12,
      "name": "floatBufferViews",
      "target": 34962
    },
    {
      "buffer": 0,
      "byteLength": 872256,
      "byteOffset": 2345952,
      "byteStride": 16,
      "name": "floatBufferViews",
      "target": 34962
    }
  ],
  "buffers": [
    {
      "byteLength": 3218208,
      "uri": "scene.bin"
    }
  ],
  "images": [
    {
      "uri": "textures/08_-_Default_baseColor.png"
    },
    {
      "uri": "textures/08_-_Default_metallicRoughness.png"
    },
    {
      "uri": "textures/08_-_Default_emissive.png"
    },
    {
      "uri": "textures/08_-_Default_normal.png"
    }
  ],
  "materials": [
    {
      "doubleSided": true,
      "emissiveFactor": [
        1.0,
        1.0,
        1.0
      ],
      "emissiveTexture": {
        "index": 2
      },
      "name": "08_-_Default",
      "normalTexture": {
        "index": 3
      },
      "occlusionTexture": {
        "index": 1,
        "strength": 0.8187881097560976
      },
      "pbrMetallicRoughness": {
        "baseColorTexture": {
          "index": 0
        },
        "metallicFactor": 0.0,
        "metallicRoughnessTexture": {
          "index": 1
        },
        "roughnessFactor": 0.8929713596497552
      }
    }
  ],
  "meshes": [
    {
      "name": "Object080_08 - Default_0",
      "primitives": [
        {
          "attributes": {
            "NORMAL": 1,
            "POSITION": 0,
            "TANGENT": 2,
            "TEXCOORD_0": 3
          },
          "indices": 4,
          "material": 0,
          "mode": 4
        }
      ]
    }
  ],
  "nodes": [
    {
      "children": [
        1
      ],
      "matrix": [
        1.4018789015030246e-17,
        1.4018789015030246e-17,
        -0.06313501298427582,
        0.0,
        -0.06313501298427582,
        3.11279646836976e-33,
        -1.4018789015030246e-17,
        0.0,
        0.0,
        0.06313501298427582,
        1.4018789015030246e-17,
        0.0,
        -21.385879516601563,
        -7.420499567581366e-07,
        -27.25376319885254,
        1.0
      ],
      "name": "Sketchfab_model"
    },
    {
      "children": [
        2
      ],
      "matrix": [
        1.0,
        0.0,
        0.0,
        0.0,
        0.0,
        0.0,
        1.0,
        0.0,
        0.0,
        -1.0,
        0.0,
        0.0,
        0.0,
        0.0,
        0.0,
        1.0
      ],
      "name": "bec1e7563fe64e6ab9dfd622afb69b45.fbx"
    },
    {
      "children": [
        3
      ],
      "name": "RootNode"
    },
    {
      "children": [
        4
      ],
      "matrix": [
        0.13370538462445591,
        -2.193723678667807e-18,
        0.03582624030465714,
        0.0,
        -1.0107656133884848e-08,
        0.13842199742793487,
        3.772229627904316e-08,
        0.0,
        -0.03582624030465571,
        -3.9052994111652605e-08,
        0.13370538462445059,
        0.0,
        -24.138776779174805,
        24.623506546020508,
        -3.520359754562378,
        1.0
      ],
      "name": "Object080"
    },
    {
      "mesh": 0,
      "name": "Object080_08 - Default_0"
    }
  ],
  "samplers": [
    {
      "magFilter": 9729,
      "minFilter": 9987,
      "wrapS": 10497,
      "wrapT": 10497
    }
  ],
  "scene": 0,
  "scenes": [
    {
      "name": "Sketchfab_Scene",
      "nodes": [
        0
      ]
    }
  ],
  "textures": [
    {
      "sampler": 0,
      "source": 0
    },
    {
      "sampler": 0,
      "source": 1
    },
    {
      "sampler": 0,
      "source": 2
    },
    {
      "sampler": 0,
      "source": 3
    }
  ]
}
